<svg width="25" height="19" viewBox="0 0 25 19" fill="none" xmlns="http://www.w3.org/2000/svg">
<path d="M20.5684 10.9222C20.5684 11.3147 20.8866 11.6329 21.2791 11.6329C21.6716 11.6329 21.9898 11.3147 21.9898 10.9222C21.9898 7.72404 20.3285 6.47804 18.8627 5.37874C17.4898 4.34908 16.3042 3.45986 16.3042 0.972416C16.3042 0.579921 15.986 0.261719 15.5935 0.261719C15.201 0.261719 14.8828 0.579921 14.8828 0.972416C14.8828 4.17055 16.5441 5.41655 18.0099 6.51585C19.3828 7.54551 20.5684 8.43473 20.5684 10.9222Z" fill="#5F5F5F"/>
<path d="M21.9917 0.972416C21.9917 0.579921 21.6735 0.261719 21.281 0.261719C20.8885 0.261719 20.5703 0.579921 20.5703 0.972416C20.5703 4.0304 21.3888 5.25825 22.1111 6.3415C22.7806 7.3459 23.4131 8.29459 23.4131 10.9222C23.4131 11.3147 23.7313 11.6329 24.1238 11.6329C24.5163 11.6329 24.8345 11.3147 24.8345 10.9222C24.8345 7.86419 24.016 6.63634 23.2938 5.55309C22.6242 4.54869 21.9917 3.6 21.9917 0.972416Z" fill="#5F5F5F"/>
<path d="M24.122 13.0547H1.28492C0.892422 13.0547 0.574219 13.3729 0.574219 13.7654V18.0296C0.574219 18.4221 0.892422 18.7403 1.28492 18.7403H24.122C24.5145 18.7403 24.8327 18.4221 24.8327 18.0296V13.7654C24.8327 13.3729 24.5145 13.0547 24.122 13.0547ZM20.5685 14.4761V17.3189H10.5714V14.4761H20.5685ZM1.99561 14.4761H9.14996V17.3189H1.99561V14.4761ZM23.4113 17.3189H21.9899V14.4761H23.4113V17.3189Z" fill="#5F5F5F"/>
</svg>
