<svg width="130" height="24" viewBox="0 0 130 24" fill="none" xmlns="http://www.w3.org/2000/svg">
<path d="M39.6442 19.7488C38.3335 19.7488 37.196 19.4623 36.2318 18.8894C35.2675 18.3013 34.5218 17.5173 33.9945 16.5372C33.4671 15.5572 33.2035 14.4716 33.2035 13.2805C33.2035 12.0441 33.4747 10.9434 34.0171 9.97844C34.5745 9.01346 35.3203 8.25204 36.2544 7.69416C37.1885 7.13628 38.2431 6.85735 39.4183 6.85735C40.3976 6.85735 41.2639 7.01566 42.0172 7.3323C42.7705 7.63385 43.4032 8.06356 43.9155 8.62144C44.4428 9.17932 44.8421 9.82766 45.1133 10.5665C45.3844 11.2902 45.52 12.0818 45.52 12.9412C45.52 13.1825 45.505 13.4237 45.4748 13.6649C45.4598 13.8911 45.4221 14.0871 45.3618 14.253H36.1188V11.7651H43.4409L41.8364 12.9412C41.987 12.2929 41.9795 11.7199 41.8138 11.2223C41.648 10.7097 41.3543 10.3101 40.9324 10.0237C40.5256 9.72211 40.0209 9.57134 39.4183 9.57134C38.8307 9.57134 38.326 9.71458 37.9041 10.0011C37.4823 10.2875 37.1659 10.7097 36.9549 11.2676C36.744 11.8255 36.6612 12.504 36.7064 13.3031C36.6461 13.9966 36.729 14.6073 36.9549 15.135C37.1809 15.6627 37.5275 16.0774 37.9945 16.3789C38.4616 16.6654 39.0265 16.8086 39.6894 16.8086C40.2921 16.8086 40.8043 16.688 41.2262 16.4468C41.6631 16.2055 42.0021 15.8738 42.2432 15.4516L44.9551 16.7408C44.714 17.3439 44.3298 17.8716 43.8025 18.324C43.2903 18.7763 42.6801 19.1306 41.972 19.3869C41.2639 19.6282 40.488 19.7488 39.6442 19.7488Z" fill="url(#paint0_linear_3833_5636)"/>
<path d="M53.5728 19.7488C52.3373 19.7488 51.2224 19.4699 50.2281 18.912C49.2488 18.339 48.4653 17.5625 47.8778 16.5825C47.3053 15.6024 47.019 14.5018 47.019 13.2805C47.019 12.0592 47.3053 10.966 47.8778 10.0011C48.4503 9.021 49.2337 8.25204 50.2281 7.69416C51.2224 7.13628 52.3373 6.85735 53.5728 6.85735C54.4918 6.85735 55.343 7.01566 56.1265 7.3323C56.9099 7.64893 57.5803 8.09372 58.1378 8.66667C58.6952 9.22455 59.0945 9.88797 59.3355 10.6569L56.3977 11.9235C56.1867 11.3053 55.8251 10.8152 55.3129 10.4534C54.8157 10.0915 54.2357 9.91059 53.5728 9.91059C52.9852 9.91059 52.4579 10.0538 51.9908 10.3403C51.5388 10.6268 51.1772 11.0263 50.9061 11.539C50.6499 12.0516 50.5219 12.6397 50.5219 13.3031C50.5219 13.9665 50.6499 14.5545 50.9061 15.0672C51.1772 15.5798 51.5388 15.9794 51.9908 16.2658C52.4579 16.5523 52.9852 16.6956 53.5728 16.6956C54.2507 16.6956 54.8383 16.5146 55.3355 16.1528C55.8327 15.7909 56.1867 15.3009 56.3977 14.6827L59.3355 15.9718C59.1096 16.6956 58.7178 17.3439 58.1604 17.9169C57.6029 18.4898 56.9325 18.9421 56.1491 19.2738C55.3656 19.5905 54.5069 19.7488 53.5728 19.7488Z" fill="url(#paint1_linear_3833_5636)"/>
<path d="M67.4561 19.7488C66.2357 19.7488 65.1208 19.4699 64.1114 18.912C63.117 18.3541 62.3185 17.5927 61.7159 16.6277C61.1283 15.6477 60.8345 14.5394 60.8345 13.3031C60.8345 12.0516 61.1283 10.9434 61.7159 9.97844C62.3185 9.01346 63.117 8.25204 64.1114 7.69416C65.1208 7.13628 66.2357 6.85735 67.4561 6.85735C68.6764 6.85735 69.7838 7.13628 70.7781 7.69416C71.7725 8.25204 72.5635 9.01346 73.1511 9.97844C73.7537 10.9434 74.055 12.0516 74.055 13.3031C74.055 14.5394 73.7537 15.6477 73.1511 16.6277C72.5635 17.5927 71.7725 18.3541 70.7781 18.912C69.7838 19.4699 68.6764 19.7488 67.4561 19.7488ZM67.4561 16.6956C68.0738 16.6956 68.6086 16.5523 69.0606 16.2658C69.5277 15.9794 69.8892 15.5798 70.1454 15.0672C70.4166 14.5545 70.5522 13.9665 70.5522 13.3031C70.5522 12.6397 70.4166 12.0592 70.1454 11.5616C69.8892 11.049 69.5277 10.6494 69.0606 10.3629C68.6086 10.0614 68.0738 9.91059 67.4561 9.91059C66.8384 9.91059 66.296 10.0614 65.8289 10.3629C65.3619 10.6494 64.9928 11.049 64.7216 11.5616C64.4654 12.0592 64.3374 12.6397 64.3374 13.3031C64.3374 13.9665 64.4654 14.5545 64.7216 15.0672C64.9928 15.5798 65.3619 15.9794 65.8289 16.2658C66.296 16.5523 66.8384 16.6956 67.4561 16.6956Z" fill="url(#paint2_linear_3833_5636)"/>
<path d="M80.4815 19.7488C79.4871 19.7488 78.6359 19.5377 77.9278 19.1155C77.2347 18.6783 76.7074 18.0752 76.3458 17.3062C75.9843 16.5372 75.8035 15.6401 75.8035 14.6148V7.12875H79.1933V14.3434C79.1933 14.8108 79.2837 15.2255 79.4645 15.5873C79.6604 15.9341 79.9316 16.2055 80.2781 16.4015C80.6246 16.5976 81.0163 16.6956 81.4533 16.6956C81.9052 16.6956 82.297 16.5976 82.6284 16.4015C82.9749 16.2055 83.2386 15.9341 83.4194 15.5873C83.6152 15.2255 83.7132 14.8108 83.7132 14.3434V7.12875H87.1031V19.4774H83.9392V17.0348L84.12 17.5776C83.8337 18.3164 83.3666 18.8668 82.7188 19.2286C82.086 19.5754 81.3403 19.7488 80.4815 19.7488Z" fill="url(#paint3_linear_3833_5636)"/>
<path d="M89.5807 24.0007V7.12875H92.7445V9.48087L92.4508 8.80237C92.8575 8.18419 93.4074 7.70924 94.1005 7.37753C94.8086 7.03074 95.6146 6.85735 96.5186 6.85735C97.6938 6.85735 98.7559 7.14382 99.7051 7.71678C100.654 8.28973 101.408 9.06623 101.965 10.0463C102.522 11.0113 102.801 12.0969 102.801 13.3031C102.801 14.4942 102.522 15.5798 101.965 16.5599C101.423 17.5399 100.677 18.3164 99.7277 18.8894C98.7785 19.4623 97.7013 19.7488 96.496 19.7488C95.6523 19.7488 94.8689 19.598 94.1457 19.2965C93.4376 18.9798 92.8651 18.52 92.4282 17.9169L92.9705 17.2157V24.0007H89.5807ZM96.0892 16.6956C96.722 16.6956 97.2794 16.5523 97.7616 16.2658C98.2437 15.9794 98.6203 15.5798 98.8915 15.0672C99.1627 14.5545 99.2983 13.9665 99.2983 13.3031C99.2983 12.6397 99.1627 12.0592 98.8915 11.5616C98.6203 11.049 98.2437 10.6494 97.7616 10.3629C97.2794 10.0614 96.722 9.91059 96.0892 9.91059C95.4866 9.91059 94.9442 10.0538 94.4621 10.3403C93.995 10.6268 93.6259 11.0263 93.3547 11.539C93.0986 12.0516 92.9705 12.6397 92.9705 13.3031C92.9705 13.9665 93.0986 14.5545 93.3547 15.0672C93.6259 15.5798 93.995 15.9794 94.4621 16.2658C94.9442 16.5523 95.4866 16.6956 96.0892 16.6956Z" fill="url(#paint4_linear_3833_5636)"/>
<path d="M110.73 19.7488C109.419 19.7488 108.282 19.4623 107.318 18.8894C106.353 18.3013 105.608 17.5173 105.08 16.5372C104.553 15.5572 104.289 14.4716 104.289 13.2805C104.289 12.0441 104.561 10.9434 105.103 9.97844C105.66 9.01346 106.406 8.25204 107.34 7.69416C108.274 7.13628 109.329 6.85735 110.504 6.85735C111.483 6.85735 112.35 7.01566 113.103 7.3323C113.856 7.63385 114.489 8.06356 115.001 8.62144C115.529 9.17932 115.928 9.82766 116.199 10.5665C116.47 11.2902 116.606 12.0818 116.606 12.9412C116.606 13.1825 116.591 13.4237 116.561 13.6649C116.546 13.8911 116.508 14.0871 116.448 14.253H107.205V11.7651H114.527L112.922 12.9412C113.073 12.2929 113.065 11.7199 112.9 11.2223C112.734 10.7097 112.44 10.3101 112.018 10.0237C111.611 9.72211 111.107 9.57134 110.504 9.57134C109.917 9.57134 109.412 9.71458 108.99 10.0011C108.568 10.2875 108.252 10.7097 108.041 11.2676C107.83 11.8255 107.747 12.504 107.792 13.3031C107.732 13.9966 107.815 14.6073 108.041 15.135C108.267 15.6627 108.613 16.0774 109.08 16.3789C109.547 16.6654 110.112 16.8086 110.775 16.8086C111.378 16.8086 111.89 16.688 112.312 16.4468C112.749 16.2055 113.088 15.8738 113.329 15.4516L116.041 16.7408C115.8 17.3439 115.416 17.8716 114.888 18.324C114.376 18.7763 113.766 19.1306 113.058 19.3869C112.35 19.6282 111.574 19.7488 110.73 19.7488Z" fill="url(#paint5_linear_3833_5636)"/>
<path d="M118.602 19.4774V7.12875H121.766V9.57134L121.585 9.02854C121.871 8.28973 122.331 7.74693 122.964 7.40015C123.612 7.03828 124.365 6.85735 125.224 6.85735C126.158 6.85735 126.971 7.05336 127.664 7.44538C128.372 7.8374 128.922 8.38773 129.314 9.09639C129.706 9.78996 129.902 10.6042 129.902 11.539V19.4774H126.512V12.2627C126.512 11.7802 126.414 11.3656 126.218 11.0188C126.037 10.672 125.774 10.4006 125.427 10.2046C125.096 10.0086 124.704 9.91059 124.252 9.91059C123.815 9.91059 123.423 10.0086 123.077 10.2046C122.73 10.4006 122.459 10.672 122.263 11.0188C122.082 11.3656 121.992 11.7802 121.992 12.2627V19.4774H118.602Z" fill="url(#paint6_linear_3833_5636)"/>
<path d="M10.7862 0H4.79289C4.19828 0 3.77841 0.573185 3.96644 1.12823L6.79851 9.48804C6.94863 9.93117 7.43169 10.1745 7.8848 10.0351L13.2041 8.39954C13.6643 8.25803 13.9202 7.77565 13.775 7.32327L11.6169 0.599048C11.5024 0.242441 11.1662 0 10.7862 0Z" fill="url(#paint7_linear_3833_5636)"/>
<path d="M14.0467 10.5512L8.75762 12.1775C8.30385 12.3171 8.04756 12.7888 8.18171 13.2376L9.93396 19.0996C10.043 19.4644 10.3833 19.7149 10.7697 19.7149H16.3821C16.9566 19.7149 17.3737 19.1774 17.2226 18.6322L15.147 11.1438C15.0171 10.6753 14.5179 10.4064 14.0467 10.5512Z" fill="url(#paint8_linear_3833_5636)"/>
<path d="M0.0996094 18.0005V1.71434C0.0996094 1.21677 0.315041 0.768715 0.659132 0.455546C1.22933 -0.0634125 1.99727 0.50225 2.2251 1.23882L7.59767 18.6081C7.768 19.1588 7.34926 19.7149 6.76426 19.7149H1.84192C0.879668 19.7149 0.0996094 18.9473 0.0996094 18.0005Z" fill="url(#paint9_linear_3833_5636)"/>
<path fill-rule="evenodd" clip-rule="evenodd" d="M22.2494 0C22.2923 1.15233e-06 22.3351 0.00477357 22.377 0.0142303C32.9958 2.41734 32.9958 17.2975 22.377 19.7006C22.3351 19.7101 22.2923 19.7149 22.2494 19.7149H19.9243C19.5344 19.7149 19.1915 19.4596 19.0855 19.0904L13.9155 1.08988C13.7588 0.542981 14.1768 0 14.7544 0H22.2494ZM21.0073 15.429C21.6937 15.429 22.3732 15.2846 23.0074 15.0046C23.6415 14.7246 24.2184 14.3149 24.7037 13.7976C25.1891 13.2802 25.5734 12.6655 25.8361 11.9895C26.0988 11.3135 26.2342 10.5891 26.2342 9.85744C26.2342 9.12576 26.0988 8.40137 25.8361 7.7254C25.5734 7.04942 25.1891 6.43468 24.7037 5.91731C24.2184 5.39995 23.6415 4.99023 23.0074 4.71024C22.3732 4.43027 21.6937 4.28584 21.0073 4.28584V15.429Z" fill="url(#paint10_linear_3833_5636)"/>
<defs>
<linearGradient id="paint0_linear_3833_5636" x1="-3.82059" y1="3.92812e-07" x2="90.0913" y2="-1.22703" gradientUnits="userSpaceOnUse">
<stop stop-color="#E71A2E"/>
<stop offset="1" stop-color="#F56B2B"/>
</linearGradient>
<linearGradient id="paint1_linear_3833_5636" x1="-3.82059" y1="3.92812e-07" x2="90.0913" y2="-1.22703" gradientUnits="userSpaceOnUse">
<stop stop-color="#E71A2E"/>
<stop offset="1" stop-color="#F56B2B"/>
</linearGradient>
<linearGradient id="paint2_linear_3833_5636" x1="-3.82059" y1="3.92812e-07" x2="90.0913" y2="-1.22703" gradientUnits="userSpaceOnUse">
<stop stop-color="#E71A2E"/>
<stop offset="1" stop-color="#F56B2B"/>
</linearGradient>
<linearGradient id="paint3_linear_3833_5636" x1="-3.82059" y1="3.92812e-07" x2="90.0913" y2="-1.22703" gradientUnits="userSpaceOnUse">
<stop stop-color="#E71A2E"/>
<stop offset="1" stop-color="#F56B2B"/>
</linearGradient>
<linearGradient id="paint4_linear_3833_5636" x1="-3.82059" y1="3.92812e-07" x2="90.0913" y2="-1.22703" gradientUnits="userSpaceOnUse">
<stop stop-color="#E71A2E"/>
<stop offset="1" stop-color="#F56B2B"/>
</linearGradient>
<linearGradient id="paint5_linear_3833_5636" x1="-3.82059" y1="3.92812e-07" x2="90.0913" y2="-1.22703" gradientUnits="userSpaceOnUse">
<stop stop-color="#E71A2E"/>
<stop offset="1" stop-color="#F56B2B"/>
</linearGradient>
<linearGradient id="paint6_linear_3833_5636" x1="-3.82059" y1="3.92812e-07" x2="90.0913" y2="-1.22703" gradientUnits="userSpaceOnUse">
<stop stop-color="#E71A2E"/>
<stop offset="1" stop-color="#F56B2B"/>
</linearGradient>
<linearGradient id="paint7_linear_3833_5636" x1="-3.82059" y1="3.92812e-07" x2="90.0913" y2="-1.22703" gradientUnits="userSpaceOnUse">
<stop stop-color="#E71A2E"/>
<stop offset="1" stop-color="#F56B2B"/>
</linearGradient>
<linearGradient id="paint8_linear_3833_5636" x1="-3.82059" y1="3.92812e-07" x2="90.0913" y2="-1.22703" gradientUnits="userSpaceOnUse">
<stop stop-color="#E71A2E"/>
<stop offset="1" stop-color="#F56B2B"/>
</linearGradient>
<linearGradient id="paint9_linear_3833_5636" x1="-3.82059" y1="3.92812e-07" x2="90.0913" y2="-1.22703" gradientUnits="userSpaceOnUse">
<stop stop-color="#E71A2E"/>
<stop offset="1" stop-color="#F56B2B"/>
</linearGradient>
<linearGradient id="paint10_linear_3833_5636" x1="-3.82059" y1="3.92812e-07" x2="90.0913" y2="-1.22703" gradientUnits="userSpaceOnUse">
<stop stop-color="#E71A2E"/>
<stop offset="1" stop-color="#F56B2B"/>
</linearGradient>
</defs>
</svg>
