<svg width="25" height="19" viewBox="0 0 25 19" fill="none" xmlns="http://www.w3.org/2000/svg">
<path d="M21.8616 7.88256C22.5814 7.33386 23.0491 6.47005 23.0491 5.49719C23.0491 3.84209 21.7031 2.49609 20.048 2.49609C18.3929 2.49609 17.0469 3.84209 17.0469 5.49719C17.0469 6.47355 17.5175 7.33936 18.2413 7.88806C18.1648 7.92208 18.0863 7.95109 18.0122 7.9896C17.7671 8.11665 17.6711 8.41876 17.7981 8.66385C17.9257 8.90944 18.2283 9.00447 18.4724 8.87742C18.9506 8.62933 19.4958 8.49829 20.048 8.49829C21.9782 8.49829 23.5493 10.0689 23.5493 11.9996V14.0003C23.5493 14.8276 22.876 15.5008 22.0487 15.5008H19.5178C19.2412 15.5008 19.0176 15.7249 19.0176 16.001C19.0176 16.2771 19.2412 16.5012 19.5178 16.5012H22.0487C23.4277 16.5012 24.5496 15.3793 24.5496 14.0003V11.9996C24.5496 10.1629 23.4427 8.58182 21.8616 7.88256ZM18.0472 5.49719C18.0472 4.39379 18.9446 3.49646 20.048 3.49646C21.1514 3.49646 22.0487 4.39379 22.0487 5.49719C22.0487 6.60059 21.1514 7.49792 20.048 7.49792C18.9446 7.49792 18.0472 6.60059 18.0472 5.49719Z" fill="#5F5F5F" stroke="#5F5F5F" stroke-width="0.4"/>
<path d="M7.29444 8.66385C7.42148 8.41876 7.32545 8.11665 7.08036 7.9896C7.00633 7.95109 6.9278 7.92208 6.85127 7.88806C7.57504 7.33986 8.04571 6.47355 8.04571 5.49719C8.04571 3.84209 6.69972 2.49609 5.04461 2.49609C3.38951 2.49609 2.04352 3.84209 2.04352 5.49719C2.04352 6.47005 2.51119 7.33386 3.23095 7.88256C1.64987 8.58182 0.542969 10.1629 0.542969 11.9996V14.0003C0.542969 15.3793 1.66488 16.5012 3.04388 16.5012H5.57481C5.85141 16.5012 6.07499 16.2771 6.07499 16.001C6.07499 15.7249 5.85141 15.5008 5.57481 15.5008H3.04388C2.21658 15.5008 1.54333 14.8276 1.54333 14.0003V11.9996C1.54333 10.0689 3.11441 8.49829 5.04461 8.49829C5.59682 8.49829 6.14201 8.62933 6.62019 8.87742C6.86378 9.00347 7.16689 8.90894 7.29444 8.66385ZM3.04388 5.49719C3.04388 4.39379 3.94121 3.49646 5.04461 3.49646C6.14802 3.49646 7.04534 4.39379 7.04534 5.49719C7.04534 6.60059 6.14802 7.49792 5.04461 7.49792C3.94121 7.49792 3.04388 6.60059 3.04388 5.49719Z" fill="#5F5F5F" stroke="#5F5F5F" stroke-width="0.4"/>
<path d="M14.5371 7.37592C15.4499 6.74319 16.0502 5.68981 16.0502 4.49737C16.0502 2.56667 14.4791 0.996094 12.5489 0.996094C10.6187 0.996094 9.04761 2.56667 9.04761 4.49737C9.04761 5.68981 9.64782 6.74319 10.5607 7.37592C8.50791 8.17522 7.04688 10.1684 7.04688 12.5003V15.5014C7.04688 16.8804 8.16878 18.0023 9.54779 18.0023H15.55C16.929 18.0023 18.0509 16.8804 18.0509 15.5014V12.5003C18.0509 10.1679 16.5899 8.17522 14.5371 7.37592ZM10.048 4.49737C10.048 3.11837 11.1699 1.99646 12.5489 1.99646C13.9279 1.99646 15.0498 3.11837 15.0498 4.49737C15.0498 5.87638 13.9279 6.99829 12.5489 6.99829C11.1699 6.99829 10.048 5.87638 10.048 4.49737ZM17.0505 15.5014C17.0505 16.3287 16.3773 17.0019 15.55 17.0019H9.54779C8.72049 17.0019 8.04724 16.3287 8.04724 15.5014V12.5003C8.04724 10.0184 10.0665 7.99865 12.5489 7.99865C15.0313 7.99865 17.0505 10.0184 17.0505 12.5003V15.5014Z" fill="#5F5F5F" stroke="#5F5F5F" stroke-width="0.4"/>
</svg>
