<svg width="25" height="21" viewBox="0 0 25 21" fill="none" xmlns="http://www.w3.org/2000/svg">
<path d="M16.4202 11.2235C15.3748 9.56469 13.5942 8.57422 11.6571 8.57422C9.72024 8.57422 7.93951 9.56469 6.89421 11.2235L4.37502 15.2205C3.95705 15.8837 3.76419 16.6498 3.81719 17.4356C3.87019 18.2216 4.16426 18.9536 4.6675 19.5527C5.17109 20.1516 5.83651 20.5608 6.59181 20.7364C7.34711 20.9118 8.12137 20.837 8.83076 20.5199L8.87702 20.499C10.6622 19.7164 12.7026 19.7234 14.4833 20.5199C14.9426 20.7252 15.4292 20.829 15.9202 20.829C16.1872 20.829 16.4557 20.7982 16.7218 20.7366C17.4771 20.5612 18.1425 20.1519 18.6463 19.553C19.1497 18.9541 19.4439 18.222 19.4971 17.436C19.5503 16.6498 19.3574 15.8837 18.9394 15.2203L16.4202 11.2235ZM17.6112 18.6527C16.9705 19.4146 15.9338 19.6554 15.0316 19.2519C13.9592 18.7722 12.8081 18.5324 11.6566 18.5324C10.5062 18.5324 9.35527 18.772 8.28356 19.2512L8.25308 19.2649C7.35774 19.65 6.33638 19.4061 5.70268 18.6527C5.06261 17.8906 4.98975 16.8118 5.52153 15.9679L8.0409 11.9709C8.83466 10.7115 10.1864 9.9595 11.6571 9.9595C13.1279 9.9595 14.4798 10.7115 15.2737 11.9709L17.7928 15.9678C18.3247 16.812 18.2517 17.891 17.6112 18.6527Z" fill="#5F5F5F" stroke="#5F5F5F" stroke-width="0.2"/>
<path d="M5.05283 11.2154C5.80228 10.9227 6.37163 10.3084 6.65613 9.48581C6.92663 8.70302 6.90447 7.81928 6.59338 6.9972C6.28212 6.17565 5.71595 5.50501 4.9993 5.10857C4.24613 4.6923 3.41886 4.62451 2.67066 4.91783C1.16538 5.50645 0.474606 7.39832 1.13099 9.13606C1.65532 10.5192 2.87823 11.3923 4.1146 11.3923C4.4303 11.3923 4.74688 11.3353 5.05283 11.2154ZM2.40193 8.63848C2.01516 7.61448 2.35496 6.52522 3.15989 6.21045C3.30524 6.15348 3.45892 6.12518 3.6158 6.12518C3.85793 6.12518 4.10804 6.19242 4.34876 6.32565C4.78163 6.56488 5.12746 6.98025 5.32244 7.49496C5.51725 8.01002 5.53462 8.55375 5.37119 9.02627C5.2214 9.4593 4.93478 9.77768 4.56431 9.92245L4.5636 9.92281C3.75973 10.2379 2.78995 9.66158 2.40193 8.63848Z" fill="#5F5F5F" stroke="#5F5F5F" stroke-width="0.2"/>
<path d="M9.93974 8.08564C11.8215 8.08564 13.3525 6.31167 13.3525 4.13116C13.3525 1.95011 11.8215 0.175781 9.93974 0.175781C8.05815 0.175781 6.52734 1.95011 6.52734 4.13116C6.52734 6.31167 8.05815 8.08564 9.93974 8.08564ZM9.93974 1.56089C11.0705 1.56089 11.9906 2.71397 11.9906 4.13116C11.9906 5.54782 11.0705 6.70054 9.93974 6.70054C8.80901 6.70054 7.88922 5.54782 7.88922 4.13116C7.88922 2.71397 8.80901 1.56089 9.93974 1.56089Z" fill="#5F5F5F" stroke="#5F5F5F" stroke-width="0.2"/>
<path d="M15.833 9.05484H15.8332C16.1227 9.15256 16.418 9.19925 16.7121 9.19925C18.0844 9.19925 19.4218 8.18336 19.9321 6.62212C20.226 5.72342 20.2067 4.77315 19.8777 3.94656C19.5335 3.08139 18.8955 2.45329 18.0812 2.17782C17.2669 1.90271 16.3857 2.01737 15.6007 2.50088C14.8507 2.96294 14.276 3.7122 13.9826 4.6109C13.3631 6.50674 14.1932 8.5003 15.833 9.05484ZM15.275 5.04772C15.4667 4.46091 15.8329 3.97739 16.3063 3.68569C16.7443 3.41581 17.2222 3.34712 17.6517 3.49225C18.081 3.63756 18.4231 3.98334 18.6153 4.46613C18.8229 4.98787 18.8317 5.5983 18.6398 6.18512C18.257 7.35623 17.1907 8.05392 16.2627 7.74041C15.3355 7.42672 14.8923 6.21883 15.275 5.04772Z" fill="#5F5F5F" stroke="#5F5F5F" stroke-width="0.2"/>
<path d="M23.0238 8.59569L23.0232 8.59515C21.7255 7.62019 19.7847 8.04277 18.6966 9.53766C17.6094 11.0333 17.7794 13.044 19.0752 14.0196C19.5477 14.3757 20.1061 14.5459 20.6776 14.5459C21.6736 14.5459 22.7099 14.0288 23.4024 13.078C24.4895 11.5824 24.3197 9.57174 23.0238 8.59569ZM22.3078 12.254C21.6653 13.1361 20.5789 13.4287 19.8856 12.9064C19.1929 12.3849 19.1507 11.2429 19.7915 10.3614C20.2174 9.77618 20.8396 9.45059 21.413 9.45059C21.703 9.45059 21.9806 9.53388 22.2139 9.70929C22.9061 10.2314 22.9481 11.3729 22.3078 12.254Z" fill="#5F5F5F" stroke="#5F5F5F" stroke-width="0.2"/>
</svg>
